<mxfile host="app.diagrams.net" modified="2023-07-16T11:26:27.482Z" agent="Mozilla/5.0 (Windows NT 10.0; Win64; x64) AppleWebKit/537.36 (KHTML, like Gecko) Chrome/114.0.0.0 Safari/537.36 Edg/114.0.1823.67" version="21.6.2" etag="L32-6f_jEy9QlFng50EW" type="github">
  <diagram name="Page-1" id="cGNHZ-aZ0TI1ODqs3lIV">
    <mxGraphModel>
      <root>
        <mxCell id="0" />
        <mxCell id="1" parent="0" />
      </root>
    </mxGraphModel>
  </diagram>
</mxfile>
